<svg width="28" height="28" viewBox="0 0 28 28" fill="none" xmlns="http://www.w3.org/2000/svg">
<path d="M26.0102 13.9995C26.0102 10.8171 24.7459 7.76493 22.4956 5.51458C20.2452 3.26424 17.1931 2.00001 14.0106 2.00001C10.9891 1.99721 8.07765 3.13446 5.85797 5.18457C3.6383 7.23469 2.27376 10.0467 2.03694 13.059C1.80011 16.0713 2.70843 19.062 4.58045 21.4339C6.45247 23.8057 9.15039 25.3839 12.1353 25.8533V17.4674H9.09082V13.9995H12.137V11.3562C12.137 8.34947 13.9283 6.68668 16.6694 6.68668C17.9825 6.68668 19.3556 6.92152 19.3556 6.92152V9.87512H17.8419C16.3505 9.87512 15.8877 10.8008 15.8877 11.7488V13.9995H19.215L18.6836 17.4674H15.886V25.8533C18.7085 25.4064 21.2788 23.967 23.1347 21.794C24.9906 19.621 26.0102 16.8572 26.0102 13.9995Z" fill="#1877F2"/>
<path d="M18.6819 17.4674L19.2133 13.9995H15.886V11.7487C15.886 10.8008 16.3488 9.8751 17.8402 9.8751H19.3538V6.91978C19.3538 6.91978 17.9808 6.68494 16.6677 6.68494C13.9249 6.68494 12.1353 8.34773 12.1353 11.3545V13.9995H9.09082V17.4674H12.137V25.8533C13.3796 26.0489 14.6451 26.0489 15.8877 25.8533V17.4674H18.6819Z" fill="white"/>
</svg>
