<svg width="28" height="28" viewBox="0 0 28 28" fill="none" xmlns="http://www.w3.org/2000/svg">
<path d="M14 26C20.6274 26 26 20.6274 26 14C26 7.37258 20.6274 2 14 2C7.37258 2 2 7.37258 2 14C2 20.6274 7.37258 26 14 26Z" fill="#0077B5"/>
<path fill-rule="evenodd" clip-rule="evenodd" d="M10.8648 8.17033C10.8648 8.91739 10.296 9.52195 9.4065 9.52195C8.55162 9.52195 7.98276 8.91739 8.0004 8.17033C7.98276 7.38697 8.55156 6.79999 9.42354 6.79999C10.296 6.79999 10.8478 7.38697 10.8648 8.17033ZM8.07192 19.2914V10.5897H10.7762V19.2908L8.07192 19.2914Z" fill="white"/>
<path fill-rule="evenodd" clip-rule="evenodd" d="M12.9436 13.3667C12.9436 12.2814 12.9078 11.356 12.8721 10.5909H15.2211L15.3459 11.7829H15.3993C15.7552 11.2312 16.6448 10.3956 18.0861 10.3956C19.8651 10.3956 21.1997 11.5701 21.1997 14.1313V19.2925H18.4953V14.4702C18.4953 13.3486 18.1042 12.5839 17.1256 12.5839C16.378 12.5839 15.9335 13.0999 15.7558 13.5978C15.6843 13.776 15.6491 14.0247 15.6491 14.2744V19.2925H12.9447V13.3667H12.9436Z" fill="white"/>
</svg>
