<svg viewBox="0 0 24 24"  xmlns="http://www.w3.org/2000/svg" style="display:none">

	<symbol viewBox="0 0 24 24" id="tel">
		<path d="M17.6311 15.4503C17.7713 15.591 17.8764 15.7627 17.9379 15.9515C17.9993 16.1404 18.0155 16.341 17.985 16.5373C17.9545 16.7335 17.8782 16.9199 17.7623 17.0811C17.6464 17.2424 17.4942 17.3741 17.3179 17.4656C16.3106 18.004 15.1369 18.1416 14.0324 17.8508C11.1008 17.1128 6.88713 12.8991 6.14914 9.9676C5.85835 8.86306 5.99594 7.6894 6.53434 6.68207C6.62583 6.5058 6.75755 6.35355 6.91884 6.23765C7.08012 6.12175 7.26643 6.04547 7.46268 6.01497C7.65893 5.98447 7.8596 6.00062 8.04845 6.06211C8.2373 6.12359 8.40902 6.22869 8.54969 6.36888L9.80066 7.61925C9.98107 7.79784 10.1031 8.02689 10.1508 8.27623C10.1985 8.52556 10.1695 8.78348 10.0677 9.01602C9.95624 9.27692 9.79804 9.51524 9.60087 9.71921C8.1705 11.1496 12.851 15.8301 14.2808 14.3991C14.4848 14.2012 14.7233 14.0424 14.9845 13.9305C15.2171 13.8285 15.475 13.7995 15.7244 13.8471C15.9738 13.8948 16.2028 14.017 16.3813 14.1975L17.6311 15.4503Z"/>
	</symbol>

	<symbol viewBox="0 0 24 24" id="email">
		<path d="M17.0563 7H6.94368C5.87027 7 5 7.87027 5 8.94368V15.3417C5 16.4151 5.87027 17.2854 6.94368 17.2854H17.0563C18.1297 17.2854 19 16.4151 19 15.3417V8.94368C19 7.87027 18.1297 7 17.0563 7ZM9.87173 13.9397L7.14993 16.2617C6.95795 16.4256 6.66934 16.4028 6.50552 16.2106C6.34168 16.0187 6.36445 15.73 6.55665 15.5662L9.27845 13.2442C9.4704 13.0803 9.75899 13.1031 9.92283 13.2953C10.0867 13.4873 10.0639 13.7759 9.87173 13.9397ZM12 13.0569C11.6359 13.056 11.283 12.9351 11.0071 12.6965L11.0074 12.6967L11.0065 12.696C11.0067 12.6963 11.007 12.6962 11.0071 12.6965L6.83099 9.07181C6.64013 8.90616 6.61982 8.61757 6.78522 8.42696C6.95084 8.2361 7.23945 8.21579 7.43004 8.38119L11.6074 12.0068C11.6966 12.0862 11.8438 12.1436 12 12.1427C12.156 12.1431 12.3006 12.0873 12.3948 12.0052L12.3969 12.0034L16.5699 8.38121C16.7605 8.21581 17.0492 8.23613 17.2148 8.42699C17.3802 8.61757 17.3599 8.90619 17.169 9.07184L12.9917 12.6976C12.7167 12.9337 12.3643 13.0565 12 13.0569ZM17.4947 16.2106C17.3308 16.4028 17.0422 16.4256 16.8503 16.2617L14.1285 13.9397C13.9363 13.7759 13.9135 13.4873 14.0774 13.2953C14.2412 13.1031 14.5298 13.0804 14.7218 13.2442L17.4436 15.5662C17.6357 15.73 17.6585 16.0187 17.4947 16.2106Z"/>
	</symbol>

	<symbol viewBox="0 0 24 24" id="map">
		<path d="M12 5C9.23875 5 7 7.18278 7 9.875C7 10.9351 7.35646 11.9079 7.94896 12.7045C7.95958 12.7236 7.96125 12.745 7.97333 12.7632L11.3067 17.6382C11.4613 17.8643 11.7217 18 12 18C12.2783 18 12.5387 17.8643 12.6933 17.6382L16.0267 12.7632C16.039 12.745 16.0404 12.7236 16.051 12.7045C16.6435 11.9079 17 10.9351 17 9.875C17 7.18278 14.7612 5 12 5ZM12 11.5C11.0796 11.5 10.3333 10.7724 10.3333 9.875C10.3333 8.97759 11.0796 8.25 12 8.25C12.9204 8.25 13.6667 8.97759 13.6667 9.875C13.6667 10.7724 12.9204 11.5 12 11.5Z"/>
	</symbol>

	<symbol viewBox="0 0 24 24" id="drop-down-arrow">
		<path d="M18 9L12 15L6 9"/>
	</symbol>

	<symbol viewBox="0 0 28 28" id="youtube">
		<path fill-rule="evenodd" clip-rule="evenodd" d="M0 14C0 6.26719 6.26719 0 14 0C21.7328 0 28 6.26719 28 14C28 21.7328 21.7328 28 14 28C6.26719 28 0 21.7328 0 14ZM18.5883 18.9164C18.5883 18.9164 21 18.9164 21 16.5047V11.5008C21 11.5008 21 9.08906 18.5883 9.08906H9.41172C9.41172 9.08906 7 9.08906 7 11.5008V16.5047C7 16.5047 7 18.9164 9.41172 18.9164H18.5883ZM16.7176 14.0056L12.1348 16.6962V11.3149L16.7176 14.0056Z"/>
	</symbol>

	<symbol viewBox="0 0 28 28" id="linked-in">
		<path d="M14 0C6.26719 0 0 6.26719 0 14C0 21.7328 6.26719 28 14 28C21.7328 28 28 21.7328 28 14C28 6.26719 21.7328 0 14 0ZM10.0844 19.857H7.35547V11.1234H10.0844V19.857ZM8.64609 10.0297H8.62422C7.63437 10.0297 6.99453 9.3625 6.99453 8.51484C6.99453 7.65078 7.65625 7 8.6625 7C9.66875 7 10.2867 7.65078 10.3086 8.51484C10.3141 9.35703 9.67422 10.0297 8.64609 10.0297ZM21 19.857H17.9047V15.3398C17.9047 14.1586 17.4234 13.3492 16.357 13.3492C15.5422 13.3492 15.0883 13.8961 14.8805 14.4211C14.8039 14.607 14.8148 14.8695 14.8148 15.1375V19.857H11.7469C11.7469 19.857 11.7852 11.8508 11.7469 11.1234H14.8148V12.4961C14.9953 11.8945 15.9742 11.0414 17.5383 11.0414C19.4797 11.0414 21 12.2992 21 15.0008V19.857Z"/>
	</symbol>

	<symbol viewBox="0 0 28 28" id="facebook">
		<path d="M14 0C6.26719 0 0 6.26719 0 14C0 21.7328 6.26719 28 14 28C21.7328 28 28 21.7328 28 14C28 6.26719 21.7328 0 14 0ZM17.0898 11.6266L16.9312 13.7211H14.782V20.9945H12.0695V13.7211H10.6203V11.6266H12.0695V10.2211C12.0695 9.60312 12.0859 8.64609 12.5344 8.05C13.0102 7.42109 13.6609 6.99453 14.782 6.99453C16.6086 6.99453 17.3742 7.25703 17.3742 7.25703L17.0133 9.40078C17.0133 9.40078 16.4117 9.22578 15.8484 9.22578C15.2852 9.22578 14.782 9.42813 14.782 9.99141V11.6266H17.0898Z"/>
	</symbol>

	<symbol viewBox="0 0 24 24" id="prev-arrow">
		<path fill-rule="evenodd" clip-rule="evenodd" d="M14.6464 5.64648L15.3535 6.35359L9.70707 12L15.3535 17.6465L14.6464 18.3536L8.29285 12L14.6464 5.64648Z"/>
	</symbol>

	<symbol viewBox="0 0 24 24" id="next-arrow">
		<path fill-rule="evenodd" clip-rule="evenodd" d="M9.35359 5.64648L8.64648 6.35359L14.2929 12L8.64648 17.6465L9.35359 18.3536L15.7071 12L9.35359 5.64648Z"/>
	</symbol>

	<symbol viewBox="0 0 20 19" id="star">
		<path d="M9.04894 0.927052C9.3483 0.00574112 10.6517 0.00573993 10.9511 0.927051L12.4697 5.60081C12.6035 6.01284 12.9875 6.2918 13.4207 6.2918H18.335C19.3037 6.2918 19.7065 7.53141 18.9228 8.10081L14.947 10.9894C14.5966 11.244 14.4499 11.6954 14.5838 12.1074L16.1024 16.7812C16.4017 17.7025 15.3472 18.4686 14.5635 17.8992L10.5878 15.0106C10.2373 14.756 9.7627 14.756 9.41221 15.0106L5.43648 17.8992C4.65276 18.4686 3.59828 17.7025 3.89763 16.7812L5.41623 12.1074C5.55011 11.6954 5.40345 11.244 5.05296 10.9894L1.07722 8.10081C0.293507 7.53141 0.696283 6.2918 1.66501 6.2918H6.57929C7.01252 6.2918 7.39647 6.01284 7.53035 5.60081L9.04894 0.927052Z"/>
	</symbol>

	<symbol viewBox="0 0 25 24" id="arrow-up">
		<path fill-rule="evenodd" clip-rule="evenodd" d="M8.1692 9.40825C7.96213 9.22555 7.94239 8.90959 8.12509 8.70252L12.1251 4.16919C12.22 4.06162 12.3565 4 12.5 4C12.6435 4 12.78 4.06162 12.8749 4.16919L16.8749 8.70252C17.0576 8.90958 17.0379 9.22555 16.8308 9.40825C16.6238 9.59095 16.3078 9.57121 16.1251 9.36414L12.5 5.25572L8.87492 9.36414C8.69222 9.57121 8.37626 9.59095 8.1692 9.40825Z"/>
		<path fill-rule="evenodd" clip-rule="evenodd" d="M12.5 21.0001C12.2239 21.0001 12 20.7763 12 20.5001L12 5.65569C12 5.37955 12.2239 5.15569 12.5 5.15569C12.7761 5.15569 13 5.37955 13 5.65569L13 20.5001C13 20.7763 12.7761 21.0001 12.5 21.0001Z"/>
	</symbol>

	<symbol viewBox="0 0 24 24" id="arrow-next">
		<path fill-rule="evenodd" clip-rule="evenodd" d="M13.5769 6.57573C13.8112 6.34142 14.1911 6.34142 14.4254 6.57573L19.4242 11.5746C19.5368 11.6871 19.6 11.8397 19.6 11.9988C19.6 12.158 19.5368 12.3106 19.4242 12.4231L14.4254 17.4219C14.1911 17.6563 13.8112 17.6563 13.5769 17.4219C13.3425 17.1876 13.3425 16.8077 13.5769 16.5734L18.1514 11.9988L13.5769 7.42426C13.3425 7.18994 13.3425 6.81004 13.5769 6.57573Z"/>
		<path fill-rule="evenodd" clip-rule="evenodd" d="M4.3999 11.9988C4.3999 11.6675 4.66853 11.3988 4.9999 11.3988H18.86C19.1913 11.3988 19.46 11.6675 19.46 11.9988C19.46 12.3302 19.1913 12.5988 18.86 12.5988H4.9999C4.66853 12.5988 4.3999 12.3302 4.3999 11.9988Z"/>
	</symbol>

	<symbol viewBox="0 0 28 28" id="check">
		<path d="M13.9998 0.666656C6.65317 0.666656 0.666504 6.65332 0.666504 14C0.666504 21.3467 6.65317 27.3333 13.9998 27.3333C21.3465 27.3333 27.3332 21.3467 27.3332 14C27.3332 6.65332 21.3465 0.666656 13.9998 0.666656ZM20.3732 10.9333L12.8132 18.4933C12.6265 18.68 12.3732 18.7867 12.1065 18.7867C11.8398 18.7867 11.5865 18.68 11.3998 18.4933L7.6265 14.72C7.23984 14.3333 7.23984 13.6933 7.6265 13.3067C8.01317 12.92 8.65317 12.92 9.03984 13.3067L12.1065 16.3733L18.9598 9.51999C19.3465 9.13332 19.9865 9.13332 20.3732 9.51999C20.7598 9.90666 20.7598 10.5333 20.3732 10.9333Z"/>
	</symbol>

	<symbol viewBox="0 0 28 28" id="fax">
		<path d="M10.4506 12.2907C10.7198 12.5599 10.871 12.925 10.871 13.3057V19.3667C10.871 19.7475 10.7198 20.1126 10.4506 20.3818C10.1813 20.651 9.81622 20.8022 9.4355 20.8022C9.05478 20.8022 8.68966 20.651 8.42045 20.3818C8.15124 20.1126 8 19.7475 8 19.3667V13.3057C8 12.925 8.15124 12.5599 8.42045 12.2907C8.68966 12.0215 9.05478 11.8702 9.4355 11.8702C9.81622 11.8702 10.1813 12.0215 10.4506 12.2907Z"/>
		<path d="M9.86924 7.16149C9.97231 7.05843 10.112 7.00036 10.2578 7H14.6275V10.1556C14.6279 10.3094 14.6891 10.4568 14.7979 10.5655C14.9066 10.6743 15.054 10.7355 15.2077 10.7359H18.4596V11.6984H11.3963C11.344 11.6337 11.2876 11.5719 11.2285 11.5141C10.8205 11.1035 10.2834 10.8461 9.70775 10.7854V7.55C9.70811 7.40424 9.76618 7.26456 9.86924 7.16149Z"/>
		<path fill-rule="evenodd" clip-rule="evenodd" d="M19.9921 12.9819C20.0952 13.0849 20.1533 13.2246 20.1536 13.3704V20.1607C19.9875 20.3767 19.8123 20.5837 19.6288 20.781C19.6205 20.7814 19.6121 20.7816 19.6036 20.7816H11.5406C11.8224 20.3637 11.9723 19.8708 11.971 19.3667V13.3057C11.9708 13.1428 11.9552 12.9803 11.9242 12.8204H19.6036C19.7494 12.8207 19.8891 12.8788 19.9921 12.9819ZM14.1215 14.7591C14.2674 14.7591 14.4073 14.8171 14.5104 14.9202C14.6136 15.0234 14.6715 15.1633 14.6715 15.3091C14.6715 15.4179 14.6379 15.5242 14.5774 15.6147C14.517 15.7051 14.4311 15.7756 14.3306 15.8173C14.2301 15.8589 14.1195 15.8698 14.0128 15.8486C13.9061 15.8273 13.8081 15.775 13.7312 15.698C13.6543 15.6211 13.6019 15.5231 13.5807 15.4164C13.5595 15.3097 13.5704 15.1991 13.612 15.0986C13.6536 14.9981 13.7241 14.9122 13.8146 14.8518C13.905 14.7914 14.0113 14.7591 14.1201 14.7591H14.1215ZM14.6296 16.7321C14.6573 16.7989 14.6715 16.8704 14.6715 16.9426C14.6715 17.0514 14.6379 17.1577 14.5774 17.2482C14.517 17.3386 14.4311 17.4091 14.3306 17.4508C14.2301 17.4924 14.1195 17.5033 14.0128 17.4821C13.9061 17.4608 13.8081 17.4085 13.7312 17.3315C13.6543 17.2546 13.6019 17.1566 13.5807 17.0499C13.5595 16.9432 13.5704 16.8326 13.612 16.7321C13.6536 16.6316 13.7241 16.5457 13.8146 16.4853C13.905 16.4249 14.0113 16.3926 14.1201 16.3926H14.1215C14.1937 16.3926 14.2652 16.4068 14.332 16.4345C14.3987 16.4621 14.4593 16.5026 14.5104 16.5537C14.5615 16.6048 14.602 16.6654 14.6296 16.7321ZM14.1201 18.0261H14.1215C14.2674 18.0261 14.4073 18.0841 14.5104 18.1872C14.6136 18.2904 14.6715 18.4303 14.6715 18.5761C14.6715 18.6849 14.6379 18.7912 14.5774 18.8817C14.517 18.9721 14.4311 19.0426 14.3306 19.0843C14.2301 19.1259 14.1195 19.1368 14.0128 19.1156C13.9061 19.0943 13.8081 19.0419 13.7312 18.965C13.6543 18.8881 13.6019 18.7901 13.5807 18.6834C13.5595 18.5767 13.5704 18.4661 13.612 18.3656C13.6536 18.2651 13.7241 18.1792 13.8146 18.1188C13.905 18.0584 14.0113 18.0261 14.1201 18.0261ZM16.3735 14.9188C16.4767 15.022 16.5346 15.1619 16.5346 15.3077C16.5346 15.4536 16.4767 15.5935 16.3735 15.6967C16.2704 15.7998 16.1305 15.8577 15.9846 15.8577H15.9819C15.836 15.8577 15.6961 15.7998 15.593 15.6967C15.4898 15.5935 15.4319 15.4536 15.4319 15.3077C15.4319 15.1619 15.4898 15.022 15.593 14.9188C15.6961 14.8157 15.836 14.7577 15.9819 14.7577H15.9846C16.1305 14.7577 16.2704 14.8157 16.3735 14.9188ZM16.3735 16.5537C16.4767 16.6569 16.5346 16.7968 16.5346 16.9426C16.5346 17.0885 16.4767 17.2284 16.3735 17.3315C16.2704 17.4347 16.1305 17.4926 15.9846 17.4926H15.9819C15.836 17.4926 15.6961 17.4347 15.593 17.3315C15.4898 17.2284 15.4319 17.0885 15.4319 16.9426C15.4319 16.7968 15.4898 16.6569 15.593 16.5537C15.6961 16.4506 15.836 16.3926 15.9819 16.3926H15.9846C16.1305 16.3926 16.2704 16.4506 16.3735 16.5537ZM16.4928 18.3656C16.5204 18.4324 16.5346 18.5039 16.5346 18.5761C16.5346 18.722 16.4767 18.8619 16.3735 18.965C16.2704 19.0682 16.1305 19.1261 15.9846 19.1261H15.9819C15.9096 19.1261 15.8381 19.1119 15.7714 19.0843C15.7047 19.0566 15.644 19.0161 15.593 18.965C15.5419 18.914 15.5014 18.8533 15.4737 18.7866C15.4461 18.7199 15.4319 18.6483 15.4319 18.5761C15.4319 18.5039 15.4461 18.4324 15.4737 18.3656C15.5014 18.2989 15.5419 18.2383 15.593 18.1872C15.644 18.1361 15.7047 18.0956 15.7714 18.068C15.8381 18.0403 15.9096 18.0261 15.9819 18.0261H15.9846C16.0569 18.0261 16.1284 18.0403 16.1951 18.068C16.2618 18.0956 16.3225 18.1361 16.3735 18.1872C16.4246 18.2383 16.4651 18.2989 16.4928 18.3656ZM18.3545 15.0973C18.3821 15.164 18.3964 15.2355 18.3964 15.3077C18.3964 15.4165 18.3641 15.5229 18.3037 15.6133C18.2432 15.7038 18.1574 15.7743 18.0569 15.8159C17.9564 15.8575 17.8458 15.8684 17.7391 15.8472C17.6324 15.826 17.5344 15.7736 17.4575 15.6967C17.3805 15.6197 17.3282 15.5217 17.3069 15.415C17.2857 15.3084 17.2966 15.1978 17.3382 15.0973C17.3799 14.9968 17.4504 14.9109 17.5408 14.8504C17.6313 14.79 17.7376 14.7577 17.8464 14.7577C17.9186 14.7577 17.9901 14.772 18.0569 14.7996C18.1236 14.8273 18.1842 14.8678 18.2353 14.9188C18.2864 14.9699 18.3269 15.0305 18.3545 15.0973ZM18.3545 16.7321C18.3821 16.7989 18.3964 16.8704 18.3964 16.9426C18.3964 17.0514 18.3641 17.1577 18.3037 17.2482C18.2432 17.3386 18.1574 17.4091 18.0569 17.4508C17.9564 17.4924 17.8458 17.5033 17.7391 17.4821C17.6324 17.4608 17.5344 17.4085 17.4575 17.3315C17.3805 17.2546 17.3282 17.1566 17.3069 17.0499C17.2857 16.9432 17.2966 16.8326 17.3382 16.7321C17.3799 16.6316 17.4504 16.5457 17.5408 16.4853C17.6313 16.4249 17.7376 16.3926 17.8464 16.3926C17.9186 16.3926 17.9901 16.4068 18.0569 16.4345C18.1236 16.4621 18.1842 16.5026 18.2353 16.5537C18.2864 16.6048 18.3269 16.6654 18.3545 16.7321ZM18.3545 18.3656C18.3821 18.4324 18.3964 18.5039 18.3964 18.5761C18.3964 18.6849 18.3641 18.7912 18.3037 18.8817C18.2432 18.9721 18.1574 19.0426 18.0569 19.0843C17.9564 19.1259 17.8458 19.1368 17.7391 19.1156C17.6324 19.0943 17.5344 19.0419 17.4575 18.965C17.3805 18.8881 17.3282 18.7901 17.3069 18.6834C17.2857 18.5767 17.2966 18.4661 17.3382 18.3656C17.3799 18.2651 17.4504 18.1792 17.5408 18.1188C17.6313 18.0584 17.7376 18.0261 17.8464 18.0261C17.9186 18.0261 17.9901 18.0403 18.0569 18.068C18.1236 18.0956 18.1842 18.1361 18.2353 18.1872C18.2864 18.2383 18.3269 18.2989 18.3545 18.3656Z"/>
		<path d="M18.4596 9.85588H15.5075L15.5089 7L18.4596 9.85038V9.85588Z"/>
	</symbol>
	

</svg>