<svg width="28" height="28" fill="none" xmlns="http://www.w3.org/2000/svg"><path d="M26.01 14a12 12 0 00-12-12 12 12 0 00-1.875 23.853v-8.386H9.091V14h3.046v-2.644c0-3.007 1.791-4.67 4.532-4.67 1.314 0 2.687.236 2.687.236v2.953h-1.514c-1.491 0-1.954.926-1.954 1.874v2.25h3.327l-.531 3.468h-2.798v8.386A12 12 0 0026.01 14z" fill="#1877F2"/><path d="M18.682 17.467L19.213 14h-3.327v-2.251c0-.948.463-1.874 1.954-1.874h1.514V6.92s-1.373-.235-2.686-.235c-2.743 0-4.533 1.663-4.533 4.67v2.644H9.091v3.468h3.046v8.386a12.06 12.06 0 003.75 0v-8.386h2.795z" fill="#fff"/></svg>