<svg width="28" height="28" fill="none" xmlns="http://www.w3.org/2000/svg"><path d="M14 26c6.627 0 12-5.373 12-12S20.627 2 14 2 2 7.373 2 14s5.373 12 12 12z" fill="#0077B5"/><path fill-rule="evenodd" clip-rule="evenodd" d="M10.865 8.17c0 .747-.569 1.352-1.459 1.352-.854 0-1.423-.605-1.406-1.352-.017-.783.552-1.37 1.424-1.37.872 0 1.424.587 1.44 1.37zM8.072 19.291V10.59h2.704v8.7l-2.704.001zm4.872-5.924c0-1.086-.036-2.011-.072-2.776h2.35l.124 1.192h.053c.356-.552 1.246-1.387 2.687-1.387 1.78 0 3.114 1.174 3.114 3.735v5.162h-2.705V14.47c0-1.121-.39-1.886-1.37-1.886-.747 0-1.191.516-1.37 1.014a1.92 1.92 0 00-.106.676v5.019h-2.704v-5.926h-.001z" fill="#fff"/></svg>